<svg width="112" height="40" viewBox="0 0 112 40" fill="none" xmlns="http://www.w3.org/2000/svg">
<path d="M8.63469 6.54772C6.47332 7.45244 4.09725 10.0084 3.34681 13.2167C2.39644 17.2817 6.35139 19.0006 6.67577 18.437C7.05757 17.7747 5.96709 17.5508 5.74263 15.4417C5.45252 12.7176 6.71895 9.6737 8.31279 8.33814C8.60905 8.09 8.59496 8.43536 8.59496 9.07418C8.59496 10.2165 8.53184 20.4714 8.53184 22.6117C8.53184 25.5076 8.41223 26.4221 8.1974 27.3258C7.97973 28.2415 7.6298 28.8603 7.89496 29.0986C8.19121 29.3652 9.45611 28.7311 10.1884 27.709C11.0665 26.4833 11.3738 25.0112 11.429 23.4126C11.4957 21.4855 11.4928 18.4276 11.4957 16.6834C11.4983 15.0837 11.5226 10.3995 11.4676 7.58348C11.4542 6.89278 9.53859 6.16812 8.63459 6.54688L8.63469 6.54772ZM85.3849 20.1007C85.3152 21.6062 84.982 22.783 84.5684 23.6131C83.7676 25.22 82.1061 25.719 81.4006 23.4089C81.0162 22.1497 80.9982 20.0468 81.2746 18.2896C81.556 16.4995 82.3416 15.1476 83.6425 15.2695C84.9256 15.39 85.5262 17.0434 85.3849 20.1006V20.1007ZM63.7535 29.4415C63.7361 31.943 63.3424 34.1364 62.4981 34.7734C61.3007 35.6767 59.6912 34.9991 60.0245 33.1737C60.3193 31.5584 61.7139 29.9087 63.7569 27.8931C63.7569 27.8931 63.7612 28.3528 63.7536 29.4415H63.7535ZM63.4265 20.0861C63.3532 21.4574 62.9978 22.8349 62.6099 23.6132C61.8094 25.2202 60.1357 25.7225 59.4422 23.4091C58.9679 21.8285 59.0815 19.7828 59.3162 18.4938C59.6206 16.8214 60.3586 15.2699 61.684 15.2699C62.9727 15.2699 63.6081 16.6837 63.4265 20.0862V20.0861ZM50.8954 20.0651C50.8168 21.5174 50.5335 22.7315 50.0788 23.6132C49.2562 25.2091 47.6288 25.7152 46.9111 23.4091C46.3937 21.7462 46.5698 19.4789 46.785 18.254C47.1045 16.4364 47.9043 15.1478 49.1529 15.2699C50.4355 15.3952 51.0591 17.0436 50.8954 20.0652V20.0651ZM108.323 21.7615C108.009 21.7615 107.866 22.0847 107.748 22.6287C107.337 24.5202 106.905 24.9473 106.349 24.9473C105.727 24.9473 105.168 24.0107 105.025 22.1358C104.912 20.6615 104.93 17.9473 105.074 15.2473C105.104 14.6926 104.951 14.1437 103.463 13.6032C102.823 13.3707 101.892 13.0284 101.429 14.1469C100.12 17.307 99.6072 19.8159 99.4867 20.8351C99.4805 20.8878 99.4158 20.8986 99.4044 20.7753C99.3277 19.959 99.156 18.4757 99.1346 15.3591C99.1305 14.7511 99.0017 14.2335 98.3305 13.8097C97.895 13.5348 96.5726 13.0485 96.0965 13.627C95.6839 14.1002 95.2061 15.3735 94.7097 16.8829C94.3062 18.1097 94.0252 18.9396 94.0252 18.9396C94.0252 18.9396 94.0305 15.6295 94.0353 14.3739C94.0375 13.9002 93.7126 13.7424 93.6146 13.7138C93.1736 13.5858 92.3048 13.372 91.936 13.372C91.481 13.372 91.3695 13.6263 91.3695 13.9969C91.3695 14.0454 91.2977 18.355 91.2977 21.3685C91.2977 21.4994 91.2977 21.6422 91.2991 21.7939C91.0474 23.1789 90.2312 25.059 89.3435 25.059C88.4548 25.059 88.0355 24.273 88.0355 20.6805C88.0355 18.5847 88.0984 17.6734 88.1294 16.1576C88.1473 15.2846 88.182 14.6141 88.18 14.462C88.1735 13.9954 87.3667 13.7602 86.9913 13.6733C86.6141 13.5857 86.2863 13.5517 86.0304 13.5663C85.6682 13.5867 85.4118 13.8244 85.4118 14.1513C85.4118 14.3265 85.4138 14.6598 85.4138 14.6598C84.9473 13.9266 84.1968 13.4163 83.6976 13.2684C82.3528 12.869 80.9495 13.2229 79.891 14.704C79.0497 15.8809 78.5426 17.2138 78.343 19.1288C78.1971 20.5288 78.2447 21.9485 78.5041 23.1492C78.1907 24.504 77.609 25.059 76.9719 25.059C76.0471 25.059 75.3767 23.5495 75.4545 20.9389C75.5059 19.2218 75.8495 18.0168 76.2251 16.2735C76.3852 15.5304 76.2551 15.1413 75.9287 14.7684C75.6294 14.4264 74.9917 14.2517 74.0749 14.4666C73.4219 14.6198 72.4882 14.7846 71.6339 14.9111C71.6339 14.9111 71.6855 14.7055 71.7278 14.3429C71.95 12.4414 69.8837 12.5956 69.2244 13.203C68.8309 13.5656 68.563 13.9932 68.4614 14.7622C68.3002 15.9824 69.2953 16.5579 69.2953 16.5579C68.9688 18.0526 68.1685 20.0051 67.3421 21.4167C66.8996 22.173 66.561 22.7335 66.1239 23.3292C66.1223 23.1074 66.1211 22.8856 66.1203 22.6648C66.1103 19.5224 66.1521 17.0493 66.1706 16.1579C66.1885 15.2849 66.2235 14.6322 66.2216 14.48C66.2166 14.1388 66.0173 14.0099 65.6029 13.8467C65.2364 13.7024 64.803 13.6025 64.3535 13.5677C63.7861 13.5234 63.4443 13.8243 63.4532 14.1802C63.455 14.2474 63.455 14.6599 63.455 14.6599C62.9884 13.9267 62.2379 13.4164 61.7387 13.2685C60.3938 12.8693 58.9906 13.2232 57.9321 14.7042C57.091 15.881 56.5402 17.5324 56.3841 19.1143C56.2387 20.5887 56.2656 21.8416 56.4638 22.8971C56.2499 23.954 55.6351 25.0592 54.94 25.0592C54.0512 25.0592 53.5456 24.2731 53.5456 20.6806C53.5456 18.5848 53.6085 17.6736 53.6394 16.1579C53.6574 15.2849 53.692 14.6142 53.6901 14.4623C53.6835 13.9957 52.8767 13.7605 52.5013 13.6734C52.1085 13.5826 51.7694 13.5492 51.509 13.5684C51.1654 13.594 50.9238 13.9017 50.9238 14.1311V14.6599C50.4573 13.9267 49.7068 13.4164 49.2076 13.2685C47.8627 12.8693 46.4673 13.2289 45.401 14.7042C44.7057 15.6661 44.1427 16.7326 43.853 19.0934C43.7693 19.7756 43.7323 20.4144 43.7371 21.0116C43.4599 22.7073 42.2352 24.6617 41.2334 24.6617C40.6472 24.6617 40.0889 23.5247 40.0889 21.1015C40.0889 17.8737 40.2887 13.278 40.3225 12.835C40.3225 12.835 41.5882 12.8135 41.8333 12.8107C42.4647 12.8037 43.0365 12.8187 43.8774 12.7756C44.2992 12.7541 44.7055 11.2405 44.2702 11.0531C44.0729 10.9684 42.6785 10.8941 42.1257 10.8823C41.6609 10.8718 40.3669 10.776 40.3669 10.776C40.3669 10.776 40.483 7.72559 40.51 7.40335C40.533 7.13478 40.1855 6.9965 39.9862 6.91259C39.5017 6.70766 39.0682 6.60954 38.5543 6.5036C37.8444 6.35715 37.5223 6.5004 37.4594 7.09958C37.3647 8.00892 37.3156 10.6724 37.3156 10.6724C36.7946 10.6724 35.0151 10.5706 34.4939 10.5706C34.0098 10.5706 33.4872 12.6528 34.1566 12.6784C34.9267 12.7083 36.2689 12.7341 37.1587 12.7609C37.1587 12.7609 37.119 17.4324 37.119 18.8746C37.119 19.028 37.1204 19.1758 37.1206 19.3191C36.6309 21.8715 34.9061 23.2503 34.9061 23.2503C35.2765 21.5617 34.5199 20.2937 33.157 19.2203C32.6548 18.8248 31.6635 18.0759 30.5544 17.2554C30.5544 17.2554 31.1968 16.6222 31.7665 15.3485C32.1701 14.4463 32.1875 13.4138 31.1968 13.1861C29.5598 12.8096 28.21 14.0119 27.8074 15.2954C27.4955 16.2897 27.6618 17.0275 28.2729 17.7939C28.3175 17.8499 28.3659 17.9071 28.4158 17.9647C28.0463 18.677 27.5386 19.6359 27.1087 20.3796C25.9153 22.4442 25.0138 24.0773 24.3325 24.0773C23.7879 24.0773 23.7952 22.4193 23.7952 20.8669C23.7952 19.5286 23.894 17.5166 23.9729 15.4335C23.9991 14.7446 23.6546 14.3521 23.0771 13.9966C22.7262 13.7806 21.9774 13.356 21.5437 13.356C20.8946 13.356 19.0217 13.4444 17.2521 18.5632C17.0291 19.2084 16.591 20.384 16.591 20.384L16.6287 14.2284C16.6287 14.0841 16.5518 13.9445 16.3758 13.8491C16.0776 13.6872 15.2811 13.356 14.5729 13.356C14.2355 13.356 14.0671 13.513 14.0671 13.8258L14.0054 23.4563C14.0054 24.188 14.0244 25.0417 14.0968 25.415C14.1689 25.7889 14.2856 26.093 14.4303 26.2739C14.5747 26.4545 14.7417 26.5922 15.0172 26.6491C15.2735 26.7019 16.6772 26.8821 16.7502 26.3457C16.8376 25.7028 16.8409 25.0075 17.578 22.4142C18.7255 18.3767 20.2216 16.4068 20.9249 15.7072C21.0479 15.5849 21.1883 15.5776 21.1815 15.7778C21.1515 16.6629 21.0459 18.8748 20.9748 20.7539C20.7843 25.7826 21.6991 26.7147 23.0065 26.7147C24.0066 26.7147 25.4165 25.7209 26.9278 23.2053C27.8701 21.6376 28.7849 20.1005 29.4422 18.9926C29.9002 19.4166 30.4143 19.873 30.928 20.3606C32.1217 21.4935 32.5136 22.5701 32.2536 23.5914C32.0547 24.3722 31.3057 25.1768 29.9726 24.3947C29.584 24.1666 29.4182 23.9903 29.0275 23.733C28.8176 23.5949 28.4971 23.5536 28.305 23.6983C27.8059 24.0746 27.5204 24.5533 27.3574 25.1459C27.1989 25.7225 27.7764 26.0273 28.375 26.2939C28.8905 26.5234 29.9984 26.7313 30.7049 26.755C33.4578 26.8471 35.663 25.4258 37.1982 21.7597C37.473 24.9259 38.6426 26.7175 40.6745 26.7175C42.033 26.7175 43.3951 24.9615 43.9907 23.2341C44.1617 23.9383 44.4148 24.5506 44.7417 25.0684C46.3074 27.5492 49.3449 27.0152 50.8706 24.9087C51.3423 24.2577 51.4142 24.0238 51.4142 24.0238C51.6367 26.013 53.2385 26.7079 54.1557 26.7079C55.1829 26.7079 56.2434 26.2223 56.9868 24.5489C57.0739 24.7305 57.169 24.9039 57.2728 25.0684C58.8385 27.5491 61.876 27.0152 63.4017 24.9086C63.4737 24.8098 63.5361 24.7202 63.5907 24.6397L63.6354 25.9462C63.6354 25.9462 62.765 26.7447 62.2307 27.2345C59.8792 29.392 58.0911 31.0288 57.9596 32.935C57.7907 35.3654 59.7619 36.2687 61.2532 36.3871C62.8368 36.5128 64.193 35.6379 65.0266 34.4136C65.7598 33.336 66.2397 31.0166 66.2046 28.7258C66.1905 27.8085 66.1674 26.6421 66.1493 25.3919C66.9758 24.4321 67.907 23.219 68.7644 21.799C69.6988 20.2515 70.7002 18.1734 71.213 16.5561C71.213 16.5561 72.0831 16.5635 73.0116 16.5027C73.3086 16.4834 73.3939 16.544 73.339 16.7617C73.2727 17.0248 72.1659 21.2938 73.176 24.1377C73.8674 26.0845 75.4261 26.7109 76.3502 26.7109C77.4319 26.7109 78.4667 25.894 79.0213 24.6809C79.0881 24.8161 79.158 24.947 79.2342 25.0678C80.8 27.5486 83.8268 27.0114 85.3632 24.9081C85.71 24.4335 85.9067 24.0232 85.9067 24.0232C86.2364 26.0819 87.8374 26.7178 88.7543 26.7178C89.7095 26.7178 90.616 26.3262 91.3515 24.586C91.3823 25.3522 91.4306 25.9788 91.5071 26.1763C91.5536 26.2971 91.8251 26.4488 92.0225 26.522C92.8963 26.846 93.7875 26.6928 94.1172 26.6261C94.3456 26.5799 94.5237 26.3967 94.5481 25.9235C94.6121 24.6811 94.5728 22.5936 94.9494 21.0423C95.5817 18.4387 96.1714 17.4288 96.4512 16.9288C96.6078 16.6487 96.7844 16.6024 96.7908 16.8989C96.804 17.4988 96.8339 19.2604 97.0788 21.6273C97.2587 23.368 97.499 24.3969 97.6836 24.7225C98.2107 25.6537 98.8616 25.6978 99.3916 25.6978C99.7288 25.6978 100.434 25.6046 100.371 25.012C100.34 24.7232 100.394 22.9381 101.017 20.3731C101.424 18.698 102.103 17.1845 102.348 16.6312C102.438 16.4272 102.48 16.588 102.478 16.6194C102.427 17.7729 102.311 21.5461 102.781 23.6097C103.418 26.4052 105.261 26.718 105.903 26.718C107.274 26.718 108.395 25.6752 108.773 22.9312C108.864 22.2709 108.729 21.761 108.326 21.761" fill="#262626"/>
</svg>
